<svg width="18" height="21" viewBox="0 0 18 21" fill="none" xmlns="http://www.w3.org/2000/svg">
<mask id="path-1-inside-1_618_451" fill="white">
<path fill-rule="evenodd" clip-rule="evenodd" d="M0.000450134 19.4178C3.85084 18.0816 6.59704 14.5931 6.59704 10.5C6.59704 6.40693 3.85084 2.91844 0.000450134 1.58224C1.70776 0.579378 3.72401 0 5.88384 0C12.0361 0 17.0234 4.70101 17.0234 10.5C17.0234 16.299 12.0361 21 5.88384 21C3.72401 21 1.70776 20.4206 0.000450134 19.4178Z"/>
</mask>
<path fill-rule="evenodd" clip-rule="evenodd" d="M0.000450134 19.4178C3.85084 18.0816 6.59704 14.5931 6.59704 10.5C6.59704 6.40693 3.85084 2.91844 0.000450134 1.58224C1.70776 0.579378 3.72401 0 5.88384 0C12.0361 0 17.0234 4.70101 17.0234 10.5C17.0234 16.299 12.0361 21 5.88384 21C3.72401 21 1.70776 20.4206 0.000450134 19.4178Z" fill="#EA7949" style="fill:#EA7949;fill:color(display-p3 0.9176 0.4745 0.2863);fill-opacity:1;"/>
<path d="M0.000450134 19.4178L-0.3274 18.473L-2.37348 19.1831L-0.506031 20.28L0.000450134 19.4178ZM0.000450134 1.58224L-0.506031 0.71999L-2.37348 1.81692L-0.3274 2.52697L0.000450134 1.58224ZM5.59704 10.5C5.59704 14.1237 3.16327 17.2617 -0.3274 18.473L0.3283 20.3625C4.53842 18.9015 7.59704 15.0624 7.59704 10.5H5.59704ZM-0.3274 2.52697C3.16327 3.73834 5.59704 6.87631 5.59704 10.5H7.59704C7.59704 5.93755 4.53842 2.09855 0.3283 0.63751L-0.3274 2.52697ZM0.506931 2.44449C2.06254 1.53074 3.90423 1 5.88384 1L5.88384 -1C3.5438 -1 1.35298 -0.371981 -0.506031 0.71999L0.506931 2.44449ZM5.88384 1C11.5403 1 16.0234 5.30818 16.0234 10.5H18.0234C18.0234 4.09384 12.5318 -1 5.88384 -1L5.88384 1ZM16.0234 10.5C16.0234 15.6918 11.5403 20 5.88384 20V22C12.5318 22 18.0234 16.9062 18.0234 10.5H16.0234ZM5.88384 20C3.90423 20 2.06254 19.4693 0.506931 18.5555L-0.506031 20.28C1.35298 21.372 3.5438 22 5.88384 22V20Z" fill="white" style="fill:white;fill-opacity:1;" mask="url(#path-1-inside-1_618_451)"/>
</svg>
